<mxfile host="app.diagrams.net" modified="2020-11-03T21:02:16.422Z" agent="5.0 (Windows NT 10.0; Win64; x64) AppleWebKit/537.36 (KHTML, like Gecko) Chrome/86.0.4240.183 Safari/537.36" etag="7CpXHo0RWke0UR8RN5jr" version="13.8.9" type="github">
  <diagram id="KpqeUWe9T__yHvzMCGmm" name="Page-1">
    <mxGraphModel dx="1017" dy="564" grid="1" gridSize="10" guides="1" tooltips="1" connect="1" arrows="1" fold="1" page="1" pageScale="1" pageWidth="850" pageHeight="1100" math="0" shadow="0">
      <root>
        <mxCell id="0" />
        <mxCell id="1" parent="0" />
        <mxCell id="-GfSJ-mZbfH85P1tIpJl-13" value="" style="edgeStyle=orthogonalEdgeStyle;rounded=0;orthogonalLoop=1;jettySize=auto;html=1;" parent="1" source="-GfSJ-mZbfH85P1tIpJl-1" target="-GfSJ-mZbfH85P1tIpJl-12" edge="1">
          <mxGeometry relative="1" as="geometry" />
        </mxCell>
        <mxCell id="-GfSJ-mZbfH85P1tIpJl-1" value="Start" style="rounded=1;whiteSpace=wrap;html=1;" parent="1" vertex="1">
          <mxGeometry x="305" width="120" height="60" as="geometry" />
        </mxCell>
        <mxCell id="-GfSJ-mZbfH85P1tIpJl-33" value="" style="edgeStyle=orthogonalEdgeStyle;rounded=0;orthogonalLoop=1;jettySize=auto;html=1;" parent="1" source="-GfSJ-mZbfH85P1tIpJl-12" target="-GfSJ-mZbfH85P1tIpJl-32" edge="1">
          <mxGeometry relative="1" as="geometry" />
        </mxCell>
        <mxCell id="-GfSJ-mZbfH85P1tIpJl-12" value="Initailize&lt;br&gt;n = 1 -&amp;gt;100&lt;br&gt;X=0&amp;nbsp;&lt;br&gt;Y=1&lt;br&gt;Z" style="whiteSpace=wrap;html=1;rounded=1;" parent="1" vertex="1">
          <mxGeometry x="305" y="80" width="120" height="60" as="geometry" />
        </mxCell>
        <mxCell id="-GfSJ-mZbfH85P1tIpJl-42" value="No" style="edgeStyle=orthogonalEdgeStyle;rounded=0;orthogonalLoop=1;jettySize=auto;html=1;" parent="1" source="-GfSJ-mZbfH85P1tIpJl-28" target="-GfSJ-mZbfH85P1tIpJl-41" edge="1">
          <mxGeometry relative="1" as="geometry" />
        </mxCell>
        <mxCell id="-GfSJ-mZbfH85P1tIpJl-44" value="" style="edgeStyle=orthogonalEdgeStyle;rounded=0;orthogonalLoop=1;jettySize=auto;html=1;" parent="1" source="-GfSJ-mZbfH85P1tIpJl-28" target="-GfSJ-mZbfH85P1tIpJl-43" edge="1">
          <mxGeometry relative="1" as="geometry" />
        </mxCell>
        <mxCell id="-GfSJ-mZbfH85P1tIpJl-28" value="If N &amp;lt;=100" style="rhombus;whiteSpace=wrap;html=1;rounded=1;" parent="1" vertex="1">
          <mxGeometry x="325" y="280" width="80" height="80" as="geometry" />
        </mxCell>
        <mxCell id="-GfSJ-mZbfH85P1tIpJl-34" style="edgeStyle=orthogonalEdgeStyle;rounded=0;orthogonalLoop=1;jettySize=auto;html=1;" parent="1" source="-GfSJ-mZbfH85P1tIpJl-32" target="-GfSJ-mZbfH85P1tIpJl-28" edge="1">
          <mxGeometry relative="1" as="geometry" />
        </mxCell>
        <mxCell id="-GfSJ-mZbfH85P1tIpJl-32" value="Get n&amp;nbsp;" style="whiteSpace=wrap;html=1;rounded=1;" parent="1" vertex="1">
          <mxGeometry x="305" y="180" width="120" height="60" as="geometry" />
        </mxCell>
        <mxCell id="-GfSJ-mZbfH85P1tIpJl-40" style="edgeStyle=orthogonalEdgeStyle;rounded=0;orthogonalLoop=1;jettySize=auto;html=1;entryX=0;entryY=0.5;entryDx=0;entryDy=0;" parent="1" source="-GfSJ-mZbfH85P1tIpJl-38" target="-GfSJ-mZbfH85P1tIpJl-32" edge="1">
          <mxGeometry relative="1" as="geometry" />
        </mxCell>
        <mxCell id="-GfSJ-mZbfH85P1tIpJl-38" value="Get next n" style="whiteSpace=wrap;html=1;rounded=1;" parent="1" vertex="1">
          <mxGeometry x="120" y="180" width="120" height="60" as="geometry" />
        </mxCell>
        <mxCell id="-GfSJ-mZbfH85P1tIpJl-41" value="End" style="whiteSpace=wrap;html=1;rounded=1;" parent="1" vertex="1">
          <mxGeometry x="465" y="290" width="120" height="60" as="geometry" />
        </mxCell>
        <mxCell id="-GfSJ-mZbfH85P1tIpJl-46" value="" style="edgeStyle=orthogonalEdgeStyle;rounded=0;orthogonalLoop=1;jettySize=auto;html=1;" parent="1" source="-GfSJ-mZbfH85P1tIpJl-43" target="-GfSJ-mZbfH85P1tIpJl-45" edge="1">
          <mxGeometry relative="1" as="geometry" />
        </mxCell>
        <mxCell id="-GfSJ-mZbfH85P1tIpJl-43" value="Save on Document&lt;br&gt;Fibonacci number&lt;br&gt;n = X" style="whiteSpace=wrap;html=1;rounded=1;" parent="1" vertex="1">
          <mxGeometry x="305" y="400" width="120" height="60" as="geometry" />
        </mxCell>
        <mxCell id="-GfSJ-mZbfH85P1tIpJl-48" value="" style="edgeStyle=orthogonalEdgeStyle;rounded=0;orthogonalLoop=1;jettySize=auto;html=1;" parent="1" source="-GfSJ-mZbfH85P1tIpJl-45" target="-GfSJ-mZbfH85P1tIpJl-47" edge="1">
          <mxGeometry relative="1" as="geometry" />
        </mxCell>
        <mxCell id="-GfSJ-mZbfH85P1tIpJl-45" value="Z = X+ Y" style="whiteSpace=wrap;html=1;rounded=1;" parent="1" vertex="1">
          <mxGeometry x="305" y="520" width="120" height="60" as="geometry" />
        </mxCell>
        <mxCell id="-GfSJ-mZbfH85P1tIpJl-50" value="" style="edgeStyle=orthogonalEdgeStyle;rounded=0;orthogonalLoop=1;jettySize=auto;html=1;" parent="1" source="-GfSJ-mZbfH85P1tIpJl-47" target="-GfSJ-mZbfH85P1tIpJl-49" edge="1">
          <mxGeometry relative="1" as="geometry" />
        </mxCell>
        <mxCell id="-GfSJ-mZbfH85P1tIpJl-47" value="X = Y" style="whiteSpace=wrap;html=1;rounded=1;" parent="1" vertex="1">
          <mxGeometry x="120" y="520" width="120" height="60" as="geometry" />
        </mxCell>
        <mxCell id="-GfSJ-mZbfH85P1tIpJl-51" style="edgeStyle=orthogonalEdgeStyle;rounded=0;orthogonalLoop=1;jettySize=auto;html=1;entryX=0.5;entryY=1;entryDx=0;entryDy=0;" parent="1" source="-GfSJ-mZbfH85P1tIpJl-49" target="-GfSJ-mZbfH85P1tIpJl-38" edge="1">
          <mxGeometry relative="1" as="geometry" />
        </mxCell>
        <mxCell id="-GfSJ-mZbfH85P1tIpJl-49" value="Y = Z" style="whiteSpace=wrap;html=1;rounded=1;" parent="1" vertex="1">
          <mxGeometry x="120" y="400" width="120" height="60" as="geometry" />
        </mxCell>
      </root>
    </mxGraphModel>
  </diagram>
</mxfile>
